<svg id="Layer_1" data-name="Layer 1" xmlns="http://www.w3.org/2000/svg" viewBox="0 0 285.42 417.99">
    <defs>
        <style>.cls-1{fill:#fff;}.cls-1,.cls-2{stroke:#2f6bbc;stroke-miterlimit:10;stroke-width:5px;}.cls-2{fill:none;}</style>
    </defs>
    <title>cider</title>
    <ellipse class="cls-1" cx="123.78" cy="143.98" rx="124.45" ry="48.56" transform="translate(-21.55 15.45) rotate(-10)" />
    <line class="cls-2" x1="81.07" y1="2.5" x2="162.74" y2="318.05" />
    <line class="cls-2" x1="119.77" y1="27.25" x2="190.15" y2="312.67" />
    <line class="cls-2" x1="81.07" y1="2.5" x2="184.63" y2="6" />
    <line class="cls-2" x1="119.24" y1="26.43" x2="194.17" y2="28.97" />
    <ellipse class="cls-2" cx="187.54" cy="25.35" rx="5.63" ry="11.98" transform="translate(3.18 52.36) rotate(-18.43)" />
    <ellipse class="cls-2" cx="174.71" cy="323" rx="13.61" ry="5.78" transform="translate(-51.86 27.01) rotate(-10)" />
    <path class="cls-2" d="M3.4,172.2q19.71,59.12,39.41,118.22,18.33,55,36.64,109.92" transform="translate(1.57 -8.23)" />
    <line class="cls-2" x1="247.99" y1="113.77" x2="282.72" y2="358.55" />
    <ellipse class="cls-2" cx="180.53" cy="384.52" rx="102.17" ry="35.49" transform="translate(-62.46 28.96) rotate(-10)" />
    <path class="cls-2" d="M214.87,227.4" transform="translate(1.57 -8.23)" />
    <path class="cls-2" d="M43.88,293.64c1.22-3.62,16.31-46.18,59.6-57.74,29-7.75,53.1,3.1,59.88,6.45l6.29,1.78" transform="translate(1.57 -8.23)" />
    <path class="cls-2" d="M159,240.82h0a89.41,89.41,0,0,0,32.74,5.82c37.31-.54,62.29-25.1,68.6-31.7" transform="translate(1.57 -8.23)" />
</svg>